<svg width="46" height="46" viewBox="0 0 46 46" fill="none" xmlns="http://www.w3.org/2000/svg">
<path d="M39.2618 16.3516H29.7383V6.73829C29.7383 3.0228 26.7155 0 23 0H6.73829C3.0228 0 0 3.0228 0 6.73829V20.3946C0 23.6486 2.31887 26.3713 5.39063 26.9974V31.1758C5.39063 31.7188 5.71658 32.2088 6.21737 32.4187C6.72212 32.6302 7.29918 32.5145 7.68326 32.1365L12.7705 27.1328H18.957V33.8711C18.957 37.5866 21.9798 40.6094 25.6953 40.6094H27.043V44.6524C27.043 45.1975 27.3713 45.6889 27.8749 45.8974C28.3785 46.1061 28.9582 45.9907 29.3436 45.6053L34.3395 40.6094H39.2618C42.9772 40.6094 46 37.5866 46 33.8711V23.0899C46 19.3744 42.9773 16.3516 39.2618 16.3516ZM18.957 23.0899V24.4375H12.2188C11.8651 24.4375 11.5258 24.5764 11.2737 24.8244L8.08594 27.9599V25.7852C8.08594 25.0409 7.48255 24.4375 6.73829 24.4375C4.50899 24.4375 2.69531 22.6238 2.69531 20.3946V6.73829C2.69531 4.50899 4.50899 2.69531 6.73829 2.69531H23C25.2293 2.69531 27.043 4.50899 27.043 6.73829V16.3516H25.6953C21.9798 16.3516 18.957 19.3744 18.957 23.0899ZM43.3047 33.8711C43.3047 36.1004 41.491 37.9141 39.2618 37.9141H33.7813C33.4238 37.9141 33.081 38.0561 32.8284 38.3089L29.7383 41.3989V39.2618C29.7383 38.5175 29.1349 37.9141 28.3906 37.9141H25.6953C23.466 37.9141 21.6524 36.1004 21.6524 33.8711V23.0899C21.6524 20.8606 23.466 19.0469 25.6953 19.0469H39.2618C41.491 19.0469 43.3047 20.8606 43.3047 23.0899V33.8711Z" fill="white"/>
</svg>
