<svg width="46" height="46" viewBox="0 0 46 46" fill="none" xmlns="http://www.w3.org/2000/svg">
<path d="M41.9683 36.6866C42.8027 35.6765 43.3047 34.3821 43.3047 32.9727C43.3047 29.7526 40.6849 27.1328 37.4648 27.1328C35.3293 27.1328 33.4588 28.2857 32.4404 30.0011L27.039 28.3236C26.9741 26.6349 25.8692 25.209 24.3477 24.6693V18.8672H30.1875C30.9318 18.8672 31.5352 18.2638 31.5352 17.5195V15.7227C31.5352 12.9696 29.8748 10.5982 27.5034 9.5538C28.3379 8.54369 28.8398 7.24931 28.8398 5.83984C28.8398 2.61975 26.2201 0 23 0C19.7799 0 17.1602 2.61975 17.1602 5.83984C17.1602 7.24931 17.6621 8.54369 18.4966 9.5538C16.1252 10.5982 14.4648 12.9696 14.4648 15.7227V17.5195C14.4648 18.2638 15.0682 18.8672 15.8125 18.8672H21.6523V24.6693C20.1308 25.209 19.0259 26.6349 18.961 28.3236L13.5596 30.0011C12.5412 28.2857 10.6707 27.1328 8.53516 27.1328C5.31507 27.1328 2.69531 29.7526 2.69531 32.9727C2.69531 34.3821 3.19727 35.6765 4.03174 36.6866C1.6604 37.7311 0 40.1024 0 42.8555V44.6523C0 45.3966 0.603391 46 1.34766 46H15.7227C16.4669 46 17.0703 45.3966 17.0703 44.6523V42.8555C17.0703 40.1024 15.4099 37.7311 13.0386 36.6866C13.873 35.6765 14.375 34.3821 14.375 32.9727C14.375 32.8388 14.3688 32.7064 14.3599 32.5749L19.761 30.8975C20.4989 31.8838 21.6762 32.5234 23 32.5234C24.3238 32.5234 25.5011 31.8838 26.239 30.8975L31.6401 32.5749C31.6312 32.7064 31.625 32.8388 31.625 32.9727C31.625 34.3821 32.127 35.6765 32.9614 36.6866C30.5901 37.7311 28.9297 40.1024 28.9297 42.8555V44.6523C28.9297 45.3966 29.5331 46 30.2773 46H44.6523C45.3966 46 46 45.3966 46 44.6523V42.8555C46 40.1024 44.3396 37.7311 41.9683 36.6866ZM23 2.69531C24.7339 2.69531 26.1445 4.10595 26.1445 5.83984C26.1445 7.57374 24.7339 8.98438 23 8.98438C21.2661 8.98438 19.8555 7.57374 19.8555 5.83984C19.8555 4.10595 21.2661 2.69531 23 2.69531ZM17.1602 15.7227C17.1602 13.4934 18.9738 11.6797 21.2031 11.6797H24.7969C27.0262 11.6797 28.8398 13.4934 28.8398 15.7227V16.1719H17.1602V15.7227ZM8.53516 29.8281C10.2691 29.8281 11.6797 31.2388 11.6797 32.9727C11.6797 34.7066 10.2691 36.1172 8.53516 36.1172C6.80126 36.1172 5.39062 34.7066 5.39062 32.9727C5.39062 31.2388 6.80126 29.8281 8.53516 29.8281ZM14.375 42.8555V43.3047H2.69531V42.8555C2.69531 40.6262 4.50899 38.8125 6.73828 38.8125H10.332C12.5613 38.8125 14.375 40.6262 14.375 42.8555ZM23 29.8281C22.2569 29.8281 21.6523 29.2236 21.6523 28.4805C21.6523 27.7374 22.2569 27.1328 23 27.1328C23.7431 27.1328 24.3477 27.7374 24.3477 28.4805C24.3477 29.2236 23.7431 29.8281 23 29.8281ZM37.4648 29.8281C39.1987 29.8281 40.6094 31.2388 40.6094 32.9727C40.6094 34.7066 39.1987 36.1172 37.4648 36.1172C35.7309 36.1172 34.3203 34.7066 34.3203 32.9727C34.3203 31.2388 35.7309 29.8281 37.4648 29.8281ZM43.3047 43.3047H31.625V42.8555C31.625 40.6262 33.4387 38.8125 35.668 38.8125H39.2617C41.491 38.8125 43.3047 40.6262 43.3047 42.8555V43.3047Z" fill="white"/>
</svg>
