<svg width="40" height="46" viewBox="0 0 40 46" fill="none" xmlns="http://www.w3.org/2000/svg">
<path d="M39.5949 29.6491C39.5949 27.4796 38.0491 25.6646 36.001 25.2472V20.395C36.001 19.9529 35.7843 19.5391 35.421 19.2873C35.0577 19.0354 34.5939 18.9777 34.1801 19.1331L31.608 20.0977C29.9189 18.3416 27.8657 17.019 25.6158 16.2071C27.8267 14.5688 29.2626 11.9414 29.2626 8.98456C29.2626 4.03039 25.2322 0 20.2781 0C15.3239 0 11.2935 4.03039 11.2935 8.98456C11.2935 11.9414 12.7294 14.5688 14.9403 16.2071C12.6903 17.0191 10.6373 18.3417 8.94816 20.0977L6.37597 19.1331C5.96214 18.9777 5.49836 19.0354 5.13511 19.2873C4.77178 19.5391 4.55507 19.9529 4.55507 20.395V25.2472C2.50704 25.6646 0.961243 27.4796 0.961243 29.6491C0.961243 31.8186 2.50704 33.6335 4.55507 34.051V39.2625C4.55507 39.8244 4.90358 40.3272 5.42954 40.5244L19.8048 45.9152C20.108 46.0282 20.448 46.0282 20.7512 45.9152L35.1265 40.5244C35.6524 40.3272 36.001 39.8244 36.001 39.2625V34.051C38.0491 33.6335 39.5949 31.8185 39.5949 29.6491ZM13.9889 8.98456C13.9889 5.5167 16.8102 2.69537 20.2781 2.69537C23.7459 2.69537 26.5673 5.5167 26.5673 8.98456C26.5673 12.4524 23.7459 15.2738 20.2781 15.2738C16.8102 15.2738 13.9889 12.4524 13.9889 8.98456ZM20.2781 17.9691C23.4355 17.9691 26.4513 19.1103 28.8043 21.149L20.2781 24.3464L11.7518 21.149C14.1049 19.1103 17.1207 17.9691 20.2781 17.9691ZM3.65661 29.6491C3.65661 28.6582 4.46271 27.8521 5.45353 27.8521H6.35198V31.446H5.45353C4.46271 31.446 3.65661 30.6399 3.65661 29.6491ZM7.25044 34.0962C8.27441 33.8874 9.04735 32.9799 9.04735 31.8952V27.4029C9.04735 26.3182 8.27441 25.4107 7.25044 25.202V22.3397L18.9304 26.7196V42.7087L7.25044 38.3287V34.0962ZM21.6257 42.7086V26.7196L33.3057 22.3397V25.202C32.2817 25.4107 31.5088 26.3182 31.5088 27.4029V31.8952C31.5088 32.9799 32.2817 33.8874 33.3057 34.0962V38.3286L21.6257 42.7086ZM35.1026 31.446H34.2041V27.8521H35.1026C36.0934 27.8521 36.8995 28.6582 36.8995 29.6491C36.8995 30.6399 36.0935 31.446 35.1026 31.446Z" fill="white"/>
</svg>
